<?xml version="1.0" encoding="UTF-8"?><svg id="a" xmlns="http://www.w3.org/2000/svg" width="26.63in" height="26.63in" viewBox="0 0 1917.28 1917.28"><circle cx="958.64" cy="958.64" r="840.17" fill="#f2f2f2" opacity=".1" stroke-width="0"/><path d="m958.64,1828.81c-117.46,0-231.42-23.01-338.72-68.39-103.62-43.83-196.68-106.57-276.58-186.47-79.91-79.91-142.64-172.96-186.47-276.58-45.38-107.3-68.39-221.26-68.39-338.72s23.01-231.42,68.39-338.72c43.83-103.62,106.57-196.68,186.47-276.58s172.96-142.64,276.58-186.47c107.3-45.38,221.26-68.39,338.72-68.39s231.42,23.01,338.72,68.39c103.62,43.83,196.68,106.57,276.58,186.47,79.9,79.91,142.64,172.96,186.47,276.58,45.38,107.3,68.39,221.26,68.39,338.72s-23.01,231.42-68.39,338.72c-43.83,103.62-106.57,196.68-186.47,276.58-79.91,79.9-172.96,142.64-276.58,186.47-107.3,45.38-221.26,68.39-338.72,68.39Zm0-1680.34c-446.73,0-810.17,363.44-810.17,810.17s363.44,810.17,810.17,810.17,810.17-363.44,810.17-810.17S1405.37,148.47,958.64,148.47Z" fill="#eb7c28" stroke-width="0"/><path d="m1228.84,712.92c-3.77-15.18-10.08-29.46-18.77-42.44-8.11-12.12-18.11-22.85-29.7-31.89-22.08-17.2-48.92-27.07-73.66-27.07-8.18,0-16.05,1.06-23.37,3.16-1.99.57-3.85.86-5.52.86-5.01,0-8.84-2.48-12.42-8.04-5.98-9.29-13.06-17.17-21.07-23.42-22.87-17.86-49.15-26.92-78.11-26.92-3.13,0-6.35.11-9.55.32-31.41,2.06-59.1,14.14-82.33,35.89-3.19,2.99-5.9,4.12-10.35,4.31-16.23.7-30.53,4.25-42.52,10.56-12.93,6.81-23.63,17.05-31.8,30.45-.96,1.58-2.02,2.26-4.19,2.72-33.23,6.95-61.99,25.63-80.98,52.6-18.96,26.93-26.93,60.36-22.46,94.13,3.67,27.65,17.82,54.95,38.83,74.89,22.65,21.5,51.9,33.35,82.36,33.35.99,0,1.99-.02,2.99-.04,23.96,0,44.4-4.86,64.28-15.31,15.62-8.21,28.32-18.33,37.75-30.1,10.07-12.57,16.77-27.45,19.89-44.21.16-.87.35-1.13.38-1.16.02,0,.15-.04.44-.04.33,0,.76.04,1.4.13,3.47.49,6.9.73,10.18.73,18.15,0,33.39-7.43,45.28-22.09,3.26-4.01,4.78-8.58,4.28-12.85-.43-3.73-2.32-6.99-5.46-9.43-2.53-1.95-5.45-2.99-8.46-2.99-4.73,0-9.35,2.49-13.01,7.01-4.35,5.37-9.31,8.75-15.18,10.34-2.59.7-5.28,1.06-7.98,1.06-8.44,0-16.62-3.43-22.43-9.39-5.21-5.34-7.97-12.28-7.79-19.55.11-3.94-1.32-7.63-4.01-10.39-2.72-2.79-6.52-4.39-10.45-4.39h-.22c-8.18.13-14.02,6.29-14.2,15-.34,16.2,5.22,30.74,16.52,43.19,2.42,2.67,3.14,4.94,2.56,8.11-2.09,11.52-5.95,20.98-11.82,28.92-15.23,20.62-36.45,32.78-64.87,37.17-6.4.99-12.65,1.49-18.58,1.49-18.23,0-34.73-4.77-49.03-14.18-43.41-28.56-58.13-83.1-35-129.7,12.06-24.3,31.35-41.2,57.35-50.24.42-.14.83-.36,1.26-.59.18-.09.43-.22.68-.34,0,.16,0,.36-.01.61-.93,19.85,7.67,36.07,27.05,51.05,2.84,2.2,6.14,3.36,9.56,3.36,4.3,0,8.35-1.92,11.11-5.26,5.14-6.23,4.25-14.9-2.13-20.61-1-.9-2-1.8-3.01-2.71-1.72-1.55-3.44-3.09-5.17-4.63-7.5-6.66-10.04-15.44-7.77-26.85,5.61-28.17,31.69-40.78,55.06-40.78,1.55,0,3.11.06,4.62.18.98.08,1.95.12,2.86.12,7.47,0,13.18-2.61,18.5-8.44,17.71-19.44,40.16-30.19,66.7-31.96,2.97-.2,5.92-.3,8.77-.3,33.07,0,58.97,13.39,76.99,39.79,8.42,12.34,19.63,18.6,33.32,18.6,3.24,0,6.69-.35,10.25-1.04,1.72-.33,3.46-.72,5.14-1.09,4.72-1.04,9.6-2.11,14.46-2.11,1.01,0,2.01.04,2.97.14,28.16,2.71,51.76,15.35,70.15,37.56,28.07,33.9,31.82,78.35,9.56,113.24-17.74,27.78-42.36,44.39-73.2,49.37-.5.09-.89.13-1.21.15.03-.25.08-.59.18-1.08,1.01-4.74,1.4-9.75,1.16-14.91-.26-5.63-2.68-9.79-7.18-12.39-2.37-1.36-5-2.08-7.59-2.08-3.78,0-7.32,1.47-9.97,4.12-2.7,2.71-4.19,6.42-4.18,10.47.02,16.62-6.61,29.63-20.29,39.77-18.54,13.75-39.99,20.71-65.6,21.29-31.04.7-54.85,17.66-63.69,45.36-4.23,13.26-5.18,28.09-2.91,45.34,3.79,28.82,3.63,54.97-.48,79.96-1.52,9.27,3.18,16.72,11.42,18.13.91.16,1.81.23,2.7.23,7.37,0,13.03-5.18,14.43-13.21,3.78-21.63,4.7-44.24,2.81-69.14-.31-4.13-.76-8.3-1.2-12.33-.88-8.11-1.78-16.49-1.57-24.77.64-24.62,14.9-39.74,38.14-40.46,9.12-.28,16.62-.96,23.61-2.15,29.04-4.94,51.66-15.85,69.16-33.38,5.24-5.24,10.56-9.95,18.03-9.95,1.03,0,2.11.08,3.2.25.36.06.74.09,1.12.09,1.14,0,2.21-.23,3.25-.46.57-.12,1.11-.24,1.63-.3,17.02-2.25,34.29-8.75,49.94-18.78,15.58-9.99,29.31-23.34,39.7-38.59,20.35-29.88,26.91-65.06,18.47-99.04Zm-252.66,48.1s.08.01.12.01c-.14,0-.28.01-.43.01.1,0,.21-.02.31-.02Zm-81.04-25.3c.06,0,.13-.01.19-.01.19,0,.38.02.57.03-.26,0-.5-.03-.76-.02Zm-22.99-110.7c-.07,0-.15-.01-.23-.01h.41c-.06,0-.12.01-.18.01Zm204.28,17.69c-.86,0-1.7-.03-2.53-.08.9.05,1.81.07,2.74.07-.07,0-.14.01-.21.01Zm39.42,225.38s-.04-.01-.06-.01h.19s-.09.01-.13.01Z" fill="#eb7c28" stroke-width="0"/><path d="m1101.11,749.25c-.55,6.26,2.8,11.74,8.34,13.66,1.52.52,3.04.79,4.51.79,3.25,0,7.92-1.3,11.68-7.47,10.69-17.51,11.49-35.11,2.39-52.3-9.1-17.19-24.11-26.38-44.61-27.31h-.11s-.11,0-.11,0c-5.93.37-12.3.93-18.73,2.48-7.32,1.77-11.44,7.98-10.02,15.11,1.21,6.06,6.24,10.13,12.54,10.13.89,0,1.8-.08,2.71-.25.8-.15,1.61-.3,2.41-.46,3.42-.66,6.64-1.28,9.9-1.28.7,0,1.39.03,2.05.09,9.89.9,17.84,6.09,21.83,14.22,4.02,8.2,3.22,17.75-2.18,26.19-1.24,1.94-2.37,3.89-2.6,6.38Zm12.87,12.44s-.02,0-.02,0c-.17,0-.34-.01-.51-.02.18,0,.36.02.53.02Zm-46.99-59.35c-.35,0-.69-.02-1.03-.05.34.03.69.05,1.05.04,0,0-.01,0-.02,0Z" fill="#eb7c28" stroke-width="0"/><path d="m692.85,1469.96c21.9-223.53-141.84-426.3-161.35-645.45-10.66-328.89,399.58-465.72,653.61-312.5,75.6,63.36,139.58,165.72,129.15,267.57-8.59,37.42-13.14,89.87,0,126.64,16.88,29.62,80.91,103.24,66.92,142.98,0,0-52.08,25.95-52.08,25.95l-5.36,7.5c24.73,66.75,6.14,45.16-46.73,66.64" fill="none" stroke="#f2f2f2" stroke-linecap="round" stroke-miterlimit="10" stroke-width="55"/><path d="m1313.56,1206.99c-50.53,42.97-2.31,92.48-48.76,123.32-73.95,22.06-275.9,42.62-272.67-85.79" fill="none" stroke="#f2f2f2" stroke-linecap="round" stroke-miterlimit="10" stroke-width="55"/></svg>