<?xml version="1.0" encoding="UTF-8"?><svg id="a" xmlns="http://www.w3.org/2000/svg" width="2.66in" height="2.66in" viewBox="0 0 191.67 191.67"><path d="m168.19.05c12.93,0,23.43,10.5,23.43,23.43v144.89c0,12.93-10.5,23.43-23.43,23.43h-39.87v-72.25h24.94l4.75-30.94h-29.69v-20.08c0-8.46,4.15-16.72,17.44-16.72h13.5c-.03-9.2-.06-18.4-.09-27.6-.01-1.32-13.02-1.33-14.59-1.33-10.98-.03-24.16,1.57-33.68,7.44-1.61.99-3.13,2.13-4.55,3.39-11.75,10.51-11.58,27.82-11.49,31.31v23.58h-27.18v30.94h27.18v72.25H23.3c-12.93,0-23.43-10.5-23.43-23.43V23.48C-.13,10.55,10.37.05,23.3.05c0,0,144.89,0,144.89,0Z" fill="#eb7c28" fill-rule="evenodd" stroke-width="0"/></svg>