<?xml version="1.0" encoding="UTF-8"?><svg id="a" xmlns="http://www.w3.org/2000/svg" width="2.65in" height="2.65in" viewBox="0 0 190.61 190.61"><path d="m103.57,75.73c-2.62-1.11-5.4-1.67-8.27-1.67s-5.65.56-8.27,1.67c-2.53,1.07-4.8,2.6-6.75,4.55-1.95,1.95-3.48,4.22-4.55,6.75-1.11,2.62-1.67,5.4-1.67,8.27s.56,5.65,1.67,8.27c1.07,2.53,2.6,4.8,4.55,6.75,1.95,1.95,4.22,3.48,6.75,4.55,2.62,1.11,5.4,1.67,8.27,1.67s5.65-.56,8.27-1.67c2.53-1.07,4.8-2.6,6.75-4.55,1.95-1.95,3.48-4.22,4.55-6.75,1.11-2.62,1.67-5.4,1.67-8.27s-.56-5.65-1.67-8.27c-1.07-2.53-2.6-4.8-4.55-6.75-1.95-1.95-4.22-3.48-6.75-4.55Z" fill="#eb7c28" stroke-width="0"/><path d="m183.88,6.73c-2.1-2.1-4.54-3.74-7.26-4.89-2.81-1.19-5.8-1.79-8.88-1.79H22.87c-3.08,0-6.07.6-8.88,1.79-2.72,1.15-5.16,2.8-7.26,4.89-2.1,2.1-3.74,4.54-4.89,7.26C.65,16.8.04,19.79.04,22.87v144.88c0,3.08.6,6.07,1.79,8.88,1.15,2.72,2.8,5.16,4.89,7.26,2.1,2.1,4.54,3.74,7.26,4.89,2.81,1.19,5.8,1.79,8.88,1.79h144.88c3.08,0,6.07-.6,8.88-1.79,2.72-1.15,5.16-2.8,7.26-4.89,2.1-2.1,3.74-4.54,4.89-7.26,1.19-2.81,1.79-5.8,1.79-8.88V22.87c0-3.08-.6-6.07-1.79-8.88-1.15-2.72-2.8-5.16-4.89-7.26Zm-22.84,115.62c-.29,6.39-1.24,11.35-3.09,16.1-1.81,4.66-4.18,8.3-7.69,11.81-3.51,3.51-7.15,5.88-11.81,7.69-4.74,1.84-9.71,2.79-16.1,3.09-6.99.32-9.32.39-27.05.39s-20.05-.08-27.05-.39c-6.39-.29-11.36-1.24-16.1-3.09-4.66-1.81-8.3-4.18-11.81-7.69-3.51-3.51-5.88-7.15-7.69-11.81-1.84-4.74-2.79-9.71-3.09-16.1-.32-7-.39-9.32-.39-27.05s.08-20.05.39-27.05c.29-6.39,1.24-11.35,3.09-16.1,1.81-4.66,4.19-8.31,7.69-11.81,3.51-3.51,7.15-5.88,11.81-7.69,4.74-1.84,9.7-2.79,16.1-3.09,6.99-.32,9.32-.39,27.05-.39s20.05.08,27.05.39c6.39.29,11.36,1.24,16.1,3.09,4.66,1.81,8.3,4.18,11.81,7.69,3.51,3.51,5.88,7.15,7.69,11.81,1.84,4.74,2.79,9.71,3.09,16.1.32,7.01.4,9.34.4,27.05s-.08,20.03-.4,27.05Z" fill="#eb7c28" stroke-width="0"/><path d="m145.83,56.87c-1.16-2.98-2.54-5.1-4.77-7.33-2.23-2.23-4.35-3.61-7.33-4.77-2.27-.88-5.68-1.93-11.98-2.22-6.88-.31-8.95-.38-26.45-.38s-19.57.07-26.45.38c-6.3.29-9.71,1.33-11.98,2.22-2.98,1.16-5.1,2.54-7.33,4.77-2.23,2.23-3.61,4.35-4.77,7.33-.88,2.26-1.93,5.67-2.22,11.98-.31,6.9-.38,8.98-.38,26.45s.07,19.55.38,26.45c.29,6.3,1.34,9.71,2.22,11.98,1.16,2.97,2.54,5.1,4.77,7.33,2.23,2.23,4.35,3.61,7.33,4.77,2.27.88,5.68,1.93,11.98,2.22,6.9.32,8.97.38,26.45.38s19.55-.07,26.45-.38c6.3-.29,9.71-1.33,11.98-2.22,2.97-1.16,5.1-2.54,7.33-4.77,2.23-2.23,3.61-4.35,4.77-7.33.88-2.27,1.93-5.68,2.22-11.98.31-6.9.38-8.97.38-26.45s-.07-19.55-.38-26.45c-.29-6.3-1.33-9.71-2.22-11.98Zm-50.53,72.68c-18.89,0-34.25-15.37-34.25-34.25s15.37-34.25,34.25-34.25,34.25,15.37,34.25,34.25-15.36,34.25-34.25,34.25Zm34.98-60.77c-4.67,0-8.46-3.8-8.46-8.46s3.8-8.46,8.46-8.46,8.46,3.8,8.46,8.46-3.8,8.46-8.46,8.46Z" fill="#eb7c28" stroke-width="0"/></svg>