<?xml version="1.0" encoding="UTF-8"?><svg id="b" xmlns="http://www.w3.org/2000/svg" width="1.37in" height="1.44in" viewBox="0 0 98.96 103.87"><path d="m45.35,80.49c-3.25-.38-7.47-1.34-11.8-3.75-13.43-7.47-16.55-22.53-17.08-25.33-1.06-.26-2.35-.55-3.9-1.38-1.83-.98-3.35-2.85-3.38-2.87l3.91-.44s-3.17-1-4.5-2.03c-1.2-.94-1.87-1.96-2.2-2.55-.49-.88-.84-1.49-1.1-2.47l-2.56.45c-.44,2.41-.69,4.89-.74,7.42l9.02,3.29c.14,2.02.44,3.99.89,5.91l-7.91,5.3c.76,2.46,1.72,4.83,2.86,7.1l9.65-1.3c.97,1.55,2.04,3.03,3.22,4.42l-4.6,8.49c1.82,1.87,3.81,3.57,5.92,5.11l8-5.68c1.46.87,2.98,1.65,4.57,2.32l-.13,9.76c2.48.83,5.04,1.46,7.69,1.86,1.45-2.71,2.9-5.43,4.35-8.14.32,0,.64.02.96.03.22,0,.45.01.67.02-.47-.64-1.11-1.66-1.49-3.06-.27-.97-.33-1.82-.33-2.48Z" fill="#f2ece6" stroke-width="0"/><path d="m85.19,19.18l-8.6,3.39c-1.56-1.73-3.27-3.31-5.12-4.72l2.34-9c-1.99-1.28-4.09-2.41-6.27-3.37l-6,6.96c-2.24-.81-4.59-1.41-7.01-1.78l-2.08-8.96c-1.17-.09-2.35-.15-3.54-.15s-2.37.06-3.54.15l-2.08,8.96c-2.42.37-4.77.97-7.01,1.78l-6-6.96c-2.18.97-4.28,2.1-6.27,3.37l2.34,9c-1.85,1.41-3.57,2.99-5.12,4.72l-8.6-3.39c-.12.15-.43.53-.55.68,1.31,1.69,2.96,3.59,5,5.51,1.92,1.81,3.79,3.27,5.47,4.43,1.69-2.55,6.05-8.4,14.04-11.75,3.78-1.58,7.94-2.45,12.31-2.45,10.65,0,20.25,5.5,26.03,13.54,1.78-1.17,3.76-2.62,5.8-4.42,1.95-1.72,3.64-3.34,4.98-4.89-.06-.07-.18-.22-.52-.65Z" fill="#f2ece6" stroke-width="0"/><path d="m86.79,50.84l9.02-3.29c-.05-2.53-.3-5-.74-7.42l-2.87-.36s-.51,2.17-2.23,3.97c-1.49,1.56-4.85,2.6-4.85,2.6l3.27.3c-.49.75-1.34,1.83-2.68,2.79-1.71,1.23-3.39,1.68-4.35,1.86-.32,2.94-1.45,9.79-6.59,16.51-5.25,6.87-11.74,9.77-14.5,10.82.38.78.76,1.62,1.13,2.53.35.87.66,1.7.93,2.5.66-.24,1.35-.52,2.06-.84,1.74-.78,3.24-1.65,4.52-2.51,2.61,1.86,5.23,3.71,7.84,5.57,2.12-1.54,4.1-3.25,5.92-5.11l-4.6-8.49c1.18-1.39,2.26-2.87,3.22-4.42l9.65,1.3c1.14-2.27,2.1-4.64,2.86-7.1l-7.91-5.3c.45-1.92.75-3.89.89-5.91Z" fill="#f2ece6" stroke-width="0"/><path d="m53.19,72.84c.98.57,1.88.64,2.08.66.52.06,1.03-.03,1.53-.15.69-.23,1.14-.51,1.14-.51-.36.07-.89.12-1.51.06-.79-.09-1.41-.35-2.49-.94-.8-.44-1.82-1.03-2.97-1.81.11.31.29.74.6,1.19.58.84,1.27,1.3,1.61,1.5Z" fill="#eb7c28" stroke-width="0"/><path d="m59.88,84.38c-.97-1.69-2.13-2.9-3.07-3.71.59.21,1.34.54,2.14,1.07.95.63,1.63,1.32,2.08,1.86-.38-1.48-1.25-4.04-3.39-6.46-1.78-2.02-4.29-3.61-5.71-3.99-.95-.26-1.71-.28-3.25-.83-1.27-.45-2.25-.96-2.89-1.33,0,1.76.23,4.46,1.48,7.45.34.82.59,1.41,1.07,2.18,2.14,3.37,5.15,4.12,6.53,6.61.66,1.19.98,2.47.98,2.47.08.32.18.7.23,1.22.1,1.01-.08,1.59.25,3.09.19.85.61,2.76,2.03,4.47,0,0,.12.14,2.06,2.13-.46-.9-1-2.28-1.01-3.98,0-1.09.18-1.72.32-2.7.18-1.27.25-3.11-.28-5.47.37.32.81.75,1.24,1.31.45.59.76,1.15.98,1.61.03-.75.02-1.83-.25-3.11-.07-.34-.43-1.98-1.53-3.88Z" fill="#eb7c28" stroke-width="0"/><path d="m93.74,31.14s-.03,0-.05-.01c-1.4,1.86-6.48,3.15-6.48,3.15,8.33-5.63,7.67-14,7.67-14-6.9,9.25-12.92,8.42-12.92,8.42,15.73-6.32,11.16-20.97,11.16-20.98,0,0,0,0,0,0-3.29,15.12-22.48,25.66-22.48,25.66-1.54,7.76-11.35,8.02-11.35,8.02-10.54-.93-9.08-7.73-9.08-7.73,2.29,2.63,4.74,1.13,4.74,1.13-3.79-1.08-3.66-2.12-3.6-2.26,2.95,1.5,5.01-.58,5.01-.58-4.41.05-4.69-2.53-4.7-2.86,0-.02.02-.03.04-.02,1.53.36,2.87-1.67,2.87-1.67-3.25,1.16-6.83-2.01-7.16-2.27.19,2.2-.06,2.16-.06,2.16-1.74-6.55-7.59-4.29-7.76-4.27,2.78,2.56,3.66,4.82,3.66,4.82,0,0,2.72,12.55-5.76,12.72-8.18.16-11.19-6.76-11.32-7.06-.12-.3-.66-.76-.66-.76-1.03-.53-2.01-1.1-2.96-1.7C10.39,23.27,4.99,9.65,4.47,8.29c-.01-.03-.06-.02-.07.01-2.89,14.78,9.67,20.02,11.29,20.63.03.01.02.07-.02.07-6.72.14-12.17-7.45-12.82-8.39-.02-.03-.06,0-.06.03.27,8.84,6.7,13.33,7.66,13.95.03.02.01.07-.02.06-2.17-.25-5.88-2.8-6.42-3.18-.03-.02-.06,0-.05.04.85,4.32,5.48,8.24,5.96,8.64.02.02.01.05-.01.05-.48.13-3.16-.58-3.59-.7-.03,0-.05.02-.04.05,2.42,6.73,9.38,6.81,10.2,6.8.03,0,.04.04.02.06-1.12,1.21-4.8,1.32-5.44,1.33-.03,0-.04.04-.02.06,2.05,1.61,4.2,2.53,6.23,3.01,3.7.92,6.87.69,9.62-.37,0,0,0,0,0,0-.89,2.43-6.59,3.66-6.59,3.66,4.51,2.04,9.33-1.08,9.33-1.08-.85,4.97-6.67,6.83-6.67,6.83,7.09,1.04,10.45-5.39,10.45-5.4,0,0,0,0,0,0,.19,6.59-2.78,8.75-2.78,8.75,6.47-1.12,7.3-8.04,7.3-8.06,0,0,0,0,0,0-2.38-12.26,1.11-13.77,1.11-13.77-1.77,3.31-.89,10.39-.89,10.41,0,0,0,0,0,0,.33,2.32,1.42,8.77,4.82,14.03,2.48,3.84,4.88,5.02,5.6,5.34.95.43,1.8.64,2.39.76-.58-1.07-1.34-2.77-1.69-4.98-.25-1.61-.48-3.04.03-4.75.49-1.67,1.67-3.6,2.58-5.08h0c2.24,4.78,3.51,4.01,3.51,4.01-1.54-4.82.73-6.05.73-6.05,1.08,4.05,3.47,4.55,3.47,4.55-.62-2.54.35-4.47.35-4.47h0c1.66,6.94,7.37,7.83,7.37,7.83-3.93-4.05-2.82-8.87-2.82-8.87,4.47,7.2,10.24,5.4,10.26,5.4,0,0,0,0,0,0-6.13-2.24-6.63-7.02-6.63-7.02,5.47,3.54,9.43,1.28,9.45,1.27,0,0,0,0,0,0-5.67-1.04-6.55-3.86-6.55-3.86,9.14,3.32,15.73-2.47,15.73-2.47-3.35-.08-5.44-1.5-5.44-1.5,8.79-.27,10.1-6.79,10.1-6.79-1.33.54-3.11.67-3.51.69-.03,0-.04-.04-.02-.06,5.96-6.08,5.93-8.25,5.86-8.63Z" fill="#eb7c28" stroke-width="0"/><path d="m61.54,85.17c.39.25.94.66,1.48,1.25.24.26,1.04,1.15,1.62,2.71.67,1.82.27,2.32.85,3.66.31.72.87,1.61,1.97,2.48-1.74-.39-2.61-1.29-2.93-1.69-.65-.77-.89-1.6-1.23-2.75-.37-1.24-.28-1.58-.59-2.76-.19-.73-.53-1.74-1.17-2.91Z" fill="#eb7c28" stroke-width="0"/><path d="m46.56,79.8c-.04.49-.06,1.22.08,2.09.08.5.44,2.42,2.74,5.3,2.03,2.55,3.25,2.93,3.6,4.73.19.98.02,1.85-.16,2.44.36-.34,2.03-1.99,1.81-4.13-.14-1.41-1.02-2.38-1.87-3.32-1.25-1.38-2.05-1.54-3.22-2.55-.94-.81-2.13-2.17-2.98-4.56Z" fill="#eb7c28" stroke-width="0"/><path d="m61.09,93c.2.42.53,1.06,1.04,1.78.48.68.69.82,1.06,1.41.26.42.7,1.11.9,2.06.1.5.34,1.63-.23,2.83-.47.99-1.25,1.51-1.63,1.74.89-2.68.51-4.18-.01-5.06-.48-.81-1.23-1.37-1.43-2.56-.15-.9.09-1.7.31-2.21Z" fill="#eb7c28" stroke-width="0"/></svg>