<?xml version="1.0" encoding="UTF-8"?><svg xmlns="http://www.w3.org/2000/svg" width="4.94in" height="4.03in" viewBox="0 0 355.53 290.51"><g id="c"><path d="m12.14,182.45c3.21,0,7.67.31,11.43,2.82,4.38,2.9,6.5,7.91,6.5,12.68,0,3.05-.78,7.75-5.09,11.43-4.15,3.52-8.93,4.07-12.76,4.07h-3.6v21.22H.63v-52.22h11.51Zm-3.52,23.64h3.6c6.89,0,10.18-3.37,10.18-8.22,0-2.9-1.17-8.06-10.26-8.06h-3.52v16.28Z" fill="#eb7c28" stroke-width="0"/><path d="m67.65,222.07h-22.31l-5.72,12.61h-8.61l25.99-55.27,24.74,55.27h-8.61l-5.48-12.61Zm-3.21-7.52l-7.75-17.69-8.06,17.69h15.82Z" fill="#eb7c28" stroke-width="0"/><path d="m98.73,182.45c6.34,0,10.41.78,13.78,3.05,5.72,3.84,6.19,10.02,6.19,12.29,0,7.52-4.62,13-11.59,14.56l16.28,22.31h-9.63l-14.95-21.37h-1.41v21.37h-7.99v-52.22h9.32Zm-1.33,23.96h2.51c2.19,0,11.12-.23,11.12-8.53,0-7.36-6.97-8.06-10.88-8.06h-2.74v16.6Z" fill="#eb7c28" stroke-width="0"/><path d="m165.83,222.07h-22.31l-5.72,12.61h-8.61l25.99-55.27,24.74,55.27h-8.61l-5.48-12.61Zm-3.21-7.52l-7.75-17.69-8.06,17.69h15.82Z" fill="#eb7c28" stroke-width="0"/><path d="m213.43,207.51h21.53v.39c0,8.93-2.66,16.21-7.75,21.14-5.4,5.25-11.82,6.65-17.77,6.65-7.59,0-13-2.19-17.77-7.12-5.09-5.25-7.75-12.21-7.75-19.73,0-8.14,3.29-15.19,7.59-19.5,4.46-4.54,11.59-7.83,19.65-7.83,4.7,0,9.55,1.02,13.62,3.29,4.31,2.43,6.97,5.48,8.46,7.83l-6.34,4.46c-1.57-2.19-3.91-4.54-6.42-5.95-2.9-1.72-6.03-2.27-9.24-2.27-6.81,0-11.2,2.82-13.78,5.4-3.44,3.44-5.56,9-5.56,14.64,0,5.25,1.96,10.49,5.4,14.17,3.6,3.84,8.06,5.25,13.07,5.25,4.54,0,8.3-1.33,11.67-4.62,2.9-2.82,4.07-5.87,4.38-8.85h-13v-7.36Z" fill="#eb7c28" stroke-width="0"/><path d="m297.9,208.6c0,15.34-11.51,27.09-27.17,27.09s-27.17-11.74-27.17-27.09,11.51-27.09,27.17-27.09,27.17,11.74,27.17,27.09Zm-7.99,0c0-11.59-7.99-19.73-19.18-19.73s-19.18,8.14-19.18,19.73,7.99,19.73,19.18,19.73,19.18-8.14,19.18-19.73Z" fill="#eb7c28" stroke-width="0"/><path d="m309.02,234.67v-55.74l37.89,39.69v-36.17h7.99v55.43l-37.89-39.69v36.48h-7.99Z" fill="#eb7c28" stroke-width="0"/><path d="m13.13,255.78c-.2.22-.29.53-.29.95v3.04H4.61v-5.87h3.3v.86c0,.42.1.73.3.95.41.45,1.18.46,1.6,0,.21-.22.31-.53.31-.95v-3.91c0-.42-.1-.73-.31-.95-.43-.46-1.19-.45-1.6,0-.2.22-.3.53-.3.95v.86h-3.3v-5.24h7.6v2.43c0,.42.09.73.29.95.41.46,1.21.46,1.62,0,.2-.22.29-.53.29-.95v-4.63H1.3c-.42,0-.73.1-.95.29-.23.21-.35.48-.35.81s.12.61.35.81c.22.2.53.29.95.29h1.11v13.31h-1.11c-.42,0-.73.09-.95.29-.23.21-.35.48-.35.81s.12.59.35.8c.22.2.53.3.95.3h13.74v-5.24c0-.42-.1-.73-.29-.95-.41-.46-1.21-.46-1.62,0Zm-4.55-5.55h0Z" fill="#f2ece6" stroke-width="0"/><path d="m43.33,254.25c-.69-.24-1.86-.45-3.58-.64-1.49-.17-2.13-.39-2.41-.55-.75-.43-.75-.85-.75-.99,0-.34.21-.66.64-.97.65-.48,1.6-.72,2.83-.72s2.12.24,2.81.71c.41.29.63.63.67,1.04.03.36.15.64.35.84.43.41,1.17.38,1.56-.05.21-.22.31-.53.31-.95v-2.06c0-.43-.1-.75-.3-.97-.41-.45-1.18-.46-1.6,0-.04.04-.07.09-.1.13-1.03-.6-2.28-.91-3.74-.91s-2.79.33-3.87.98c-1.17.7-1.76,1.67-1.76,2.88,0,.68.22,1.32.64,1.89.42.57,1,1,1.74,1.29.69.27,1.78.47,3.33.63,1.41.14,2.49.43,3.21.83.62.36.91.79.91,1.35,0,.48-.32.97-.95,1.44-.67.51-1.74.77-3.18.77-.98,0-1.82-.14-2.49-.41-.64-.26-1.1-.59-1.38-.97-.15-.21-.23-.47-.23-.8s-.11-.62-.32-.83c-.44-.44-1.2-.42-1.6.03-.19.22-.29.53-.29.95v2.47c0,.42.1.73.3.95.36.39.97.45,1.41.16.17-.11.29-.25.37-.42,1.18.71,2.61,1.07,4.27,1.07,2,0,3.56-.44,4.63-1.3,1.1-.89,1.66-1.94,1.66-3.11,0-.79-.26-1.54-.78-2.22-.51-.66-1.28-1.19-2.29-1.55Zm-8.9,3.33h0s0,0,0,0Z" fill="#f2ece6" stroke-width="0"/><path d="m77.61,258.21c-.72.71-1.54,1.23-2.44,1.54-.91.32-1.81.49-2.68.49-1.49,0-2.67-.45-3.6-1.37-.93-.92-1.38-2.06-1.38-3.49,0-1.33.42-2.48,1.27-3.51.83-1,2.03-1.49,3.67-1.49,1.29,0,2.33.28,3.07.82.71.52,1.09,1.04,1.13,1.56.03.38.14.67.34.86.43.43,1.17.4,1.57-.04.19-.22.29-.53.3-.96v-2.71c0-.43-.1-.75-.3-.97-.41-.45-1.18-.46-1.6,0-.1.11-.18.25-.23.41-1.19-.79-2.6-1.19-4.2-1.19-2.06,0-3.8.69-5.16,2.06-1.36,1.37-2.05,3.11-2.05,5.17s.68,3.72,2.01,5.05c1.33,1.32,3.05,2,5.12,2s3.83-.54,5.46-1.61c1.15-.75,1.67-1.36,1.67-1.98,0-.29-.11-.56-.31-.76-.4-.4-1.02-.46-1.64.12Zm.57-4.96s0,0,0,0h0s0,0,0,0Z" fill="#f2ece6" stroke-width="0"/><path d="m110.47,259.76h-1.1v-7.44c0-1.09-.48-2.07-1.44-2.91-.94-.83-2.24-1.25-3.87-1.25-.81,0-1.96.2-3.5.62-1.43.38-1.71.57-1.84.72-.13.13-.29.37-.29.74,0,.3.1.57.3.77.2.21.46.33.75.33.12,0,.29-.03.74-.17,1.63-.52,2.9-.79,3.77-.79,1.1,0,1.92.21,2.43.62.49.39.73.82.73,1.32v1.34c-.54-.1-1.06-.17-1.55-.23-.67-.07-1.29-.11-1.85-.11-2.16,0-3.83.47-4.99,1.41-1.18.96-1.78,2.12-1.78,3.43,0,1.2.46,2.23,1.38,3.05.9.81,2.15,1.22,3.71,1.22,1.78,0,3.49-.57,5.08-1.68v1.21h3.31c.43,0,.75-.1.97-.3.23-.21.35-.49.35-.8s-.12-.61-.35-.81c-.22-.2-.53-.29-.96-.29Zm-3.31-3.89v2.04c-.85.79-1.67,1.37-2.46,1.74-.82.38-1.73.57-2.68.57s-1.68-.21-2.15-.62c-.46-.4-.68-.87-.68-1.45,0-.62.3-1.15.92-1.62.89-.68,2.16-1.03,3.78-1.03.67,0,1.32.04,1.92.11.47.06.92.14,1.35.25Z" fill="#f2ece6" stroke-width="0"/><path d="m140.46,249.06c-1.07-.59-2.25-.89-3.51-.89-1.19,0-2.25.24-3.13.72-.54.29-1.06.67-1.56,1.13v-1.42h-3.31c-.42,0-.73.1-.95.3-.23.21-.35.48-.35.79s.12.6.35.81c.22.2.53.3.95.3h1.11v14.47h-1.11c-.42,0-.73.1-.95.29-.23.21-.35.49-.35.81s.12.6.35.81c.22.2.53.29.95.29h5.73c.42,0,.73-.1.95-.31.23-.21.35-.48.35-.79s-.12-.6-.35-.81c-.22-.2-.53-.29-.95-.29h-2.41v-5.43c1.29,1.21,2.87,1.81,4.71,1.81s3.58-.67,4.9-1.98c1.33-1.31,2-2.92,2-4.78,0-1.17-.3-2.29-.88-3.35-.59-1.06-1.44-1.91-2.52-2.5Zm1.19,5.85c0,1.26-.45,2.31-1.36,3.21-.92.9-2.01,1.34-3.32,1.34s-2.43-.44-3.35-1.34c-.92-.9-1.36-1.95-1.36-3.2s.45-2.28,1.37-3.19c.92-.9,2.02-1.34,3.35-1.34s2.41.44,3.33,1.33c.91.9,1.36,1.94,1.36,3.19Zm-13.33-4.77h0s0,0,0,0Z" fill="#f2ece6" stroke-width="0"/><path d="m173.5,258.73c-.57.45-1.32.81-2.23,1.09-.93.28-1.83.42-2.67.42-1.5,0-2.71-.42-3.72-1.3-.87-.76-1.42-1.7-1.68-2.87h12.13v-.5c.02-2.17-.65-3.96-2.01-5.33-1.36-1.37-3.11-2.07-5.2-2.07s-3.76.68-5.14,2.01c-1.39,1.34-2.09,2.97-2.09,4.84,0,2.04.75,3.81,2.21,5.25,1.47,1.44,3.32,2.16,5.5,2.16,1.28,0,2.54-.22,3.76-.65,1.25-.45,2.11-.92,2.62-1.45.31-.31.38-.62.38-.83,0-.29-.11-.56-.31-.77-.39-.41-.95-.48-1.54-.01Zm-.52-4.88h-9.74c.28-.96.8-1.73,1.57-2.35.93-.75,2-1.12,3.3-1.12s2.37.37,3.3,1.13c.77.63,1.29,1.4,1.56,2.34Z" fill="#f2ece6" stroke-width="0"/><path d="m227.91,253.57h-5.77c-.42-.01-.73.09-.95.29-.23.21-.35.49-.35.81s.12.6.35.81c.22.2.53.29.95.29h3.63v3.62c-.68.3-1.28.51-1.79.64-.58.14-1.22.21-1.89.21-2,0-3.58-.54-4.7-1.62-1.13-1.08-1.67-2.52-1.67-4.38v-2.19c0-1.03.24-1.96.71-2.77.72-1.26,1.49-2.12,2.29-2.56,1.68-.91,4-.87,5.78.05.84.43,1.26.95,1.31,1.56.01.41.12.71.33.92.42.41,1.14.4,1.55-.02.21-.22.31-.53.31-.97v-2.71c0-.41-.1-.74-.3-.95-.37-.4-1-.45-1.43-.15-.19.13-.33.3-.4.5,0,.02-.02.05-.03.09-1.27-.77-2.76-1.17-4.45-1.17-1.42,0-2.75.35-3.95,1.05-1.21.7-2.18,1.73-2.87,3.05-.69,1.31-1.04,2.68-1.04,4.07v2.2c0,1.37.2,2.52.61,3.43.4.9.96,1.72,1.68,2.45.72.73,1.62,1.31,2.65,1.71,1.03.4,2.23.61,3.57.61.95,0,1.91-.14,2.86-.4.94-.27,1.9-.67,2.84-1.19l.26-.14v-4.94c.29-.01.43-.04.52-.07.19-.07.36-.2.5-.39.14-.19.21-.41.21-.64,0-.32-.12-.6-.35-.81-.22-.2-.53-.29-.95-.29Z" fill="#f2ece6" stroke-width="0"/><path d="m259.29,259.76h-1.1v-7.44c0-1.09-.48-2.07-1.44-2.91-.94-.83-2.24-1.25-3.87-1.25-.81,0-1.96.2-3.5.62-1.43.38-1.71.57-1.84.72-.13.13-.29.37-.29.74,0,.3.1.57.3.78.21.21.46.32.75.32.12,0,.29-.03.74-.17,1.63-.52,2.9-.79,3.77-.79,1.1,0,1.92.21,2.43.62.49.39.73.82.73,1.32v1.34c-.54-.1-1.06-.17-1.55-.23-.67-.07-1.29-.11-1.85-.11-2.16,0-3.83.47-4.99,1.41-1.18.96-1.78,2.12-1.78,3.43,0,1.2.46,2.23,1.38,3.05.9.81,2.15,1.22,3.71,1.22,1.78,0,3.49-.57,5.08-1.68v1.21h3.31c.43,0,.75-.1.97-.3.23-.21.35-.48.35-.8s-.12-.61-.35-.81c-.22-.2-.53-.29-.96-.29Zm-3.31-3.89v2.04c-.84.79-1.67,1.37-2.46,1.74-.82.38-1.72.57-2.68.57s-1.68-.21-2.15-.62c-.46-.4-.68-.87-.68-1.45,0-.62.3-1.15.92-1.62.89-.68,2.16-1.03,3.78-1.03.67,0,1.32.04,1.92.11.47.06.92.14,1.35.25Z" fill="#f2ece6" stroke-width="0"/><path d="m292.86,259.76h-.51v-7.88c0-.99-.39-1.9-1.14-2.71-.61-.67-1.43-1.01-2.44-1.01-.64,0-1.28.19-1.91.56-.43.26-.86.61-1.27,1.06-.28-.43-.61-.78-.97-1.04-1.21-.85-2.94-.8-4.49.41v-.57h-2.71c-.42,0-.73.1-.95.3-.23.21-.35.48-.35.79s.12.6.35.81c.22.2.53.3.95.3h.51v8.96h-.51c-.42,0-.72.09-.95.29-.23.21-.35.49-.35.81s.12.58.35.8c.22.2.53.3.95.3h3.23c.42,0,.73-.1.95-.3.23-.21.35-.48.35-.8s-.12-.61-.35-.81c-.22-.2-.53-.29-.95-.29h-.51v-7.3c.57-.83,1.11-1.42,1.6-1.75.66-.44,1.32-.5,1.89.13.29.32.43.73.43,1.24v9.88h2.71c.42,0,.73-.1.95-.3.23-.21.35-.48.35-.79s-.12-.6-.35-.81c-.22-.19-.53-.29-.95-.29h-.5v-7.31c.55-.83,1.03-1.39,1.44-1.67.81-.55,1.48-.55,2.02.03.29.31.42.69.42,1.17v9.97h2.71c.42,0,.73-.1.95-.3.23-.21.35-.48.35-.79s-.12-.6-.35-.81c-.22-.19-.53-.29-.95-.29Zm.61.66h0,0s0,0,0,0Zm-16.68.86h0s0,0,0,0Zm10.58-.86h0,0s0,0,0,0Z" fill="#f2ece6" stroke-width="0"/><path d="m322.32,258.73c-.57.45-1.32.81-2.23,1.09-.93.28-1.83.42-2.67.42-1.5,0-2.71-.42-3.72-1.3-.87-.76-1.42-1.7-1.68-2.87h12.12v-.5c.03-2.17-.65-3.96-2.01-5.33-1.36-1.37-3.11-2.07-5.2-2.07s-3.76.68-5.14,2.01c-1.39,1.34-2.09,2.97-2.09,4.84,0,2.04.75,3.81,2.21,5.25,1.47,1.44,3.32,2.16,5.5,2.16,1.28,0,2.54-.22,3.76-.65,1.25-.45,2.11-.92,2.62-1.45.31-.31.38-.62.38-.82,0-.29-.11-.56-.31-.77-.39-.41-.96-.48-1.54-.01Zm-.52-4.88h-9.74c.28-.96.8-1.73,1.57-2.35.92-.75,2-1.12,3.3-1.12s2.38.37,3.3,1.13c.77.63,1.29,1.4,1.56,2.34Z" fill="#f2ece6" stroke-width="0"/><path d="m354.75,255.8c-.51-.66-1.28-1.19-2.29-1.55-.69-.24-1.86-.45-3.58-.64-1.49-.17-2.13-.39-2.41-.55-.75-.43-.75-.85-.75-.99,0-.34.21-.65.64-.97.65-.48,1.61-.72,2.83-.72s2.13.24,2.81.71c.41.29.63.63.67,1.04.03.36.15.64.34.83.42.41,1.17.38,1.56-.05.21-.22.31-.53.31-.95v-2.06c0-.43-.1-.75-.3-.97-.41-.45-1.19-.46-1.61,0-.04.04-.07.08-.1.13-1.03-.6-2.28-.91-3.74-.91s-2.79.33-3.87.98c-1.17.7-1.76,1.67-1.76,2.88,0,.68.21,1.32.64,1.89.42.57,1,1,1.74,1.29.69.27,1.78.47,3.33.63,1.41.14,2.49.43,3.21.83.62.36.91.79.91,1.35,0,.48-.32.97-.95,1.44-.67.51-1.74.77-3.18.77-.99,0-1.82-.14-2.49-.41-.64-.26-1.1-.59-1.38-.97-.16-.21-.23-.47-.23-.8s-.11-.62-.32-.83c-.44-.44-1.19-.42-1.6.03-.19.22-.29.53-.29.95v2.47c0,.42.1.73.3.95.36.39.97.46,1.41.16.17-.11.29-.25.37-.42,1.18.71,2.61,1.07,4.27,1.07,2,0,3.56-.44,4.63-1.3,1.1-.89,1.66-1.94,1.66-3.11,0-.8-.26-1.54-.78-2.22Zm-11.2,1.77h0s0,0,0,0Z" fill="#f2ece6" stroke-width="0"/></g><g id="e"><path d="m172.52,138.56c-4.8-.56-11.02-1.97-17.4-5.52-19.81-11.02-24.41-33.23-25.2-37.37-1.57-.39-3.46-.81-5.76-2.04-2.7-1.45-4.94-4.2-4.99-4.23l5.76-.64s-4.68-1.47-6.64-3c-1.77-1.38-2.76-2.89-3.24-3.75-.72-1.3-1.24-2.2-1.62-3.64l-3.77.66c-.65,3.56-1.02,7.21-1.1,10.94l13.31,4.85c.21,2.98.65,5.89,1.31,8.71l-11.66,7.82c1.11,3.63,2.54,7.13,4.21,10.47l14.24-1.92c1.43,2.29,3.02,4.47,4.75,6.52l-6.78,12.52c2.69,2.75,5.61,5.27,8.74,7.54l11.8-8.38c2.15,1.29,4.4,2.44,6.73,3.43l-.19,14.39c3.65,1.22,7.44,2.16,11.34,2.75,2.14-4,4.27-8.01,6.41-12.01.47.01.94.03,1.41.04.33.01.66.02.99.03-.69-.94-1.63-2.46-2.19-4.51-.39-1.43-.49-2.69-.48-3.65Z" fill="#f2ece6" stroke-width="0"/><path d="m231.27,48.12l-12.68,5c-2.29-2.55-4.83-4.88-7.56-6.96l3.46-13.28c-2.94-1.89-6.03-3.55-9.25-4.98l-8.85,10.26c-3.31-1.19-6.77-2.08-10.34-2.62l-3.07-13.21c-1.72-.13-3.46-.22-5.22-.22s-3.49.09-5.22.22l-3.07,13.21c-3.57.54-7.03,1.43-10.34,2.62l-8.85-10.26c-3.22,1.42-6.31,3.09-9.25,4.98l3.46,13.28c-2.73,2.08-5.26,4.41-7.56,6.96l-12.68-5c-.17.22-.64.78-.8,1,1.93,2.5,4.36,5.29,7.37,8.13,2.83,2.67,5.59,4.82,8.07,6.54,2.5-3.76,8.92-12.39,20.71-17.33,5.57-2.33,11.7-3.62,18.16-3.62,15.71,0,29.86,8.12,38.39,19.97,2.62-1.72,5.54-3.86,8.55-6.52,2.87-2.54,5.37-4.92,7.34-7.21-.09-.1-.27-.33-.77-.96Z" fill="#f2ece6" stroke-width="0"/><path d="m233.64,94.81l13.31-4.85c-.07-3.73-.45-7.38-1.1-10.94l-4.24-.53s-.76,3.21-3.29,5.85c-2.2,2.3-7.16,3.84-7.16,3.84l4.82.44c-.73,1.1-1.98,2.69-3.95,4.12-2.52,1.82-5,2.48-6.42,2.75-.47,4.34-2.14,14.43-9.71,24.35-7.74,10.14-17.31,14.4-21.38,15.95.56,1.15,1.12,2.4,1.67,3.73.52,1.28.97,2.51,1.36,3.68.98-.36,1.99-.76,3.03-1.23,2.57-1.15,4.79-2.44,6.67-3.7,3.86,2.74,7.71,5.47,11.57,8.21,3.12-2.27,6.04-4.79,8.74-7.54l-6.78-12.52c1.74-2.05,3.33-4.23,4.75-6.52l14.24,1.92c1.68-3.34,3.1-6.84,4.21-10.47l-11.66-7.82c.66-2.83,1.11-5.74,1.31-8.71Z" fill="#f2ece6" stroke-width="0"/><path d="m184.08,127.26c1.44.84,2.77.94,3.07.98.76.09,1.51-.04,2.26-.23,1.02-.33,1.68-.76,1.68-.76-.53.1-1.31.18-2.22.08-1.17-.13-2.08-.52-3.67-1.38-1.19-.65-2.68-1.52-4.37-2.67.16.45.42,1.09.89,1.76.85,1.24,1.87,1.92,2.37,2.21Z" fill="#eb7c28" stroke-width="0"/><path d="m193.95,144.28c-1.43-2.49-3.13-4.27-4.52-5.48.88.31,1.98.8,3.15,1.58,1.4.93,2.4,1.95,3.06,2.74-.55-2.18-1.84-5.95-4.99-9.53-2.63-2.98-6.32-5.33-8.43-5.89-1.4-.38-2.52-.42-4.79-1.23-1.87-.66-3.32-1.42-4.26-1.96,0,2.59.35,6.57,2.18,10.99.5,1.2.86,2.09,1.58,3.22,3.15,4.97,7.6,6.08,9.63,9.75.97,1.75,1.45,3.64,1.45,3.64.12.47.26,1.03.34,1.8.15,1.5-.12,2.35.37,4.56.28,1.25.89,4.07,2.99,6.59,0,0,.18.21,3.04,3.14-.68-1.33-1.47-3.37-1.49-5.87-.01-1.61.26-2.54.47-3.99.26-1.88.37-4.59-.41-8.06.55.48,1.19,1.11,1.83,1.94.66.87,1.12,1.69,1.44,2.37.05-1.1.03-2.71-.37-4.58-.1-.5-.63-2.92-2.25-5.73Z" fill="#eb7c28" stroke-width="0"/><path d="m243.89,65.76s-.04-.01-.08-.02c-2.07,2.75-9.56,4.65-9.56,4.65,12.29-8.3,11.32-20.65,11.32-20.65-10.18,13.65-19.05,12.42-19.05,12.42,23.2-9.33,16.46-30.93,16.46-30.94,0,0,0,0,0,0-4.85,22.29-33.15,37.84-33.15,37.84-2.28,11.45-16.75,11.83-16.75,11.83-15.55-1.37-13.39-11.4-13.39-11.4,3.37,3.88,6.99,1.66,6.99,1.66-5.59-1.6-5.41-3.13-5.31-3.33,4.35,2.22,7.39-.85,7.39-.85-6.5.08-6.91-3.73-6.94-4.22,0-.03.02-.04.05-.04,2.25.53,4.24-2.46,4.24-2.46-4.8,1.72-10.08-2.97-10.56-3.35.28,3.24-.09,3.18-.09,3.18-2.56-9.67-11.19-6.33-11.44-6.3,4.09,3.78,5.4,7.11,5.41,7.11,0,.01,4.01,18.51-8.49,18.76-12.07.24-16.51-9.97-16.69-10.41-.18-.44-.98-1.11-.98-1.11-1.51-.78-2.97-1.62-4.36-2.51-17.94-11.49-25.91-31.57-26.67-33.58-.02-.05-.09-.03-.1.02-4.26,21.8,14.26,29.52,16.66,30.42.05.02.03.1-.03.1-9.91.21-17.95-10.99-18.91-12.38-.03-.04-.09-.01-.09.04.4,13.03,9.88,19.66,11.3,20.58.04.03.02.1-.03.09-3.2-.36-8.67-4.12-9.47-4.69-.04-.03-.08.01-.08.06,1.25,6.37,8.08,12.15,8.79,12.74.03.02.02.07-.02.08-.7.19-4.66-.86-5.3-1.03-.04-.01-.07.03-.05.07,3.57,9.92,13.84,10.05,15.04,10.03.04,0,.06.06.03.09-1.66,1.78-7.07,1.94-8.02,1.96-.05,0-.06.06-.03.09,3.03,2.38,6.2,3.72,9.19,4.43,5.46,1.35,10.13,1.01,14.18-.54,0,0,0,0,0,0-1.31,3.58-9.73,5.4-9.73,5.4,6.65,3.01,13.76-1.59,13.76-1.59-1.25,7.34-9.84,10.07-9.84,10.07,10.46,1.54,15.41-7.96,15.41-7.96,0,0,0,0,0,0,.28,9.73-4.09,12.91-4.09,12.91,9.54-1.65,10.76-11.86,10.76-11.89,0,0,0,0,0,0-3.51-18.08,1.64-20.3,1.64-20.3-2.61,4.88-1.31,15.33-1.31,15.36,0,0,0,0,0,0,.49,3.41,2.1,12.93,7.11,20.69,3.66,5.66,7.19,7.4,8.26,7.88,1.4.63,2.65.95,3.53,1.12-.85-1.57-1.98-4.08-2.49-7.34-.37-2.38-.7-4.49.04-7.01.72-2.46,2.47-5.32,3.8-7.49h0c3.3,7.05,5.18,5.91,5.18,5.91-2.28-7.11,1.08-8.93,1.08-8.93,1.59,5.97,5.12,6.71,5.12,6.71-.91-3.75.51-6.6.51-6.6h0c2.45,10.24,10.86,11.55,10.86,11.55-5.8-5.97-4.15-13.08-4.15-13.08,6.59,10.62,15.11,7.97,15.13,7.96,0,0,0,0,0,0-9.04-3.3-9.78-10.35-9.78-10.35,8.06,5.22,13.91,1.89,13.93,1.88,0,0,0,0,0,0-8.36-1.54-9.67-5.69-9.67-5.69,13.48,4.89,23.21-3.64,23.21-3.64-4.95-.11-8.02-2.22-8.02-2.22,12.97-.4,14.9-10.01,14.9-10.01-1.96.8-4.58.99-5.17,1.02-.04,0-.06-.05-.03-.08,8.79-8.97,8.74-12.16,8.64-12.73Z" fill="#eb7c28" stroke-width="0"/><path d="m196.4,145.46c.58.38,1.38.97,2.19,1.85.35.39,1.54,1.7,2.39,3.99.99,2.69.4,3.42,1.26,5.39.46,1.06,1.29,2.38,2.9,3.66-2.56-.58-3.84-1.91-4.33-2.49-.95-1.14-1.31-2.35-1.82-4.05-.54-1.83-.41-2.33-.87-4.07-.29-1.07-.78-2.57-1.72-4.3Z" fill="#eb7c28" stroke-width="0"/><path d="m174.3,137.53c-.06.72-.09,1.81.12,3.08.12.73.65,3.57,4.03,7.82,3,3.77,4.8,4.32,5.31,6.98.28,1.44.03,2.72-.24,3.6.53-.5,2.99-2.93,2.68-6.1-.21-2.07-1.51-3.51-2.76-4.9-1.84-2.03-3.03-2.27-4.76-3.76-1.38-1.19-3.14-3.2-4.39-6.73Z" fill="#eb7c28" stroke-width="0"/><path d="m195.73,157c.29.61.78,1.56,1.53,2.62.71,1,1.02,1.21,1.57,2.08.39.62,1.03,1.64,1.33,3.04.15.74.5,2.41-.34,4.18-.69,1.45-1.84,2.23-2.41,2.56,1.31-3.95.75-6.16-.02-7.46-.7-1.19-1.81-2.01-2.11-3.77-.23-1.33.14-2.51.45-3.26Z" fill="#eb7c28" stroke-width="0"/></g></svg>