<?xml version="1.0" encoding="UTF-8"?><svg xmlns="http://www.w3.org/2000/svg" width="4.94in" height="4.03in" viewBox="0 0 355.53 290.51"><g id="c"><path d="m12.14,182.45c3.21,0,7.67.31,11.43,2.82,4.38,2.9,6.5,7.91,6.5,12.68,0,3.05-.78,7.75-5.09,11.43-4.15,3.52-8.93,4.07-12.76,4.07h-3.6v21.22H.63v-52.22h11.51Zm-3.52,23.64h3.6c6.89,0,10.18-3.37,10.18-8.22,0-2.9-1.17-8.06-10.26-8.06h-3.52v16.28Z" fill="#eb7c28" stroke-width="0"/><path d="m67.65,222.07h-22.31l-5.72,12.61h-8.61l25.99-55.27,24.74,55.27h-8.61l-5.48-12.61Zm-3.21-7.52l-7.75-17.69-8.06,17.69h15.82Z" fill="#eb7c28" stroke-width="0"/><path d="m98.73,182.45c6.34,0,10.41.78,13.78,3.05,5.72,3.84,6.19,10.02,6.19,12.29,0,7.52-4.62,13-11.59,14.56l16.28,22.31h-9.63l-14.95-21.37h-1.41v21.37h-7.99v-52.22h9.32Zm-1.33,23.96h2.51c2.19,0,11.12-.23,11.12-8.53,0-7.36-6.97-8.06-10.88-8.06h-2.74v16.6Z" fill="#eb7c28" stroke-width="0"/><path d="m165.83,222.07h-22.31l-5.72,12.61h-8.61l25.99-55.27,24.74,55.27h-8.61l-5.48-12.61Zm-3.21-7.52l-7.75-17.69-8.06,17.69h15.82Z" fill="#eb7c28" stroke-width="0"/><path d="m213.43,207.51h21.53v.39c0,8.93-2.66,16.21-7.75,21.14-5.4,5.25-11.82,6.65-17.77,6.65-7.59,0-13-2.19-17.77-7.12-5.09-5.25-7.75-12.21-7.75-19.73,0-8.14,3.29-15.19,7.59-19.5,4.46-4.54,11.59-7.83,19.65-7.83,4.7,0,9.55,1.02,13.62,3.29,4.31,2.43,6.97,5.48,8.46,7.83l-6.34,4.46c-1.57-2.19-3.91-4.54-6.42-5.95-2.9-1.72-6.03-2.27-9.24-2.27-6.81,0-11.2,2.82-13.78,5.4-3.44,3.44-5.56,9-5.56,14.64,0,5.25,1.96,10.49,5.4,14.17,3.6,3.84,8.06,5.25,13.07,5.25,4.54,0,8.3-1.33,11.67-4.62,2.9-2.82,4.07-5.87,4.38-8.85h-13v-7.36Z" fill="#eb7c28" stroke-width="0"/><path d="m297.9,208.6c0,15.34-11.51,27.09-27.17,27.09s-27.17-11.74-27.17-27.09,11.51-27.09,27.17-27.09,27.17,11.74,27.17,27.09Zm-7.99,0c0-11.59-7.99-19.73-19.18-19.73s-19.18,8.14-19.18,19.73,7.99,19.73,19.18,19.73,19.18-8.14,19.18-19.73Z" fill="#eb7c28" stroke-width="0"/><path d="m309.02,234.67v-55.74l37.89,39.69v-36.17h7.99v55.43l-37.89-39.69v36.48h-7.99Z" fill="#eb7c28" stroke-width="0"/><path d="m4.11,253.39v6.87h9.23v-3.54c0-.29.05-.49.16-.61.11-.12.26-.19.44-.19s.33.06.44.19c.11.12.16.33.16.61v4.74H1.3c-.29,0-.49-.06-.61-.17s-.19-.26-.19-.43c0-.18.06-.33.19-.44.12-.11.33-.16.61-.16h1.61v-14.31h-1.61c-.29,0-.49-.05-.61-.16-.12-.11-.19-.25-.19-.44s.06-.33.19-.44c.12-.11.33-.16.61-.16h12.61v4.13c0,.29-.05.49-.16.61-.11.12-.26.19-.44.19s-.33-.06-.44-.19c-.11-.12-.16-.33-.16-.61v-2.93H4.11v6.24h4.3v-1.36c0-.29.06-.49.17-.61s.26-.19.44-.19.31.06.43.19.17.33.17.61v3.91c0,.29-.06.49-.17.61s-.26.19-.43.19c-.18,0-.33-.06-.44-.19s-.17-.33-.17-.61v-1.36h-4.3Z" fill="#f2ece6" stroke="#f2ece6" stroke-miterlimit="10"/><path d="m44.05,249.88c0-.28.06-.48.17-.6s.26-.19.43-.19c.18,0,.33.06.44.19s.17.33.17.63v2.06c0,.29-.06.49-.17.61s-.26.19-.44.19c-.16,0-.3-.05-.41-.16-.11-.11-.17-.28-.19-.51-.06-.57-.35-1.04-.89-1.41-.78-.53-1.81-.8-3.1-.8s-2.39.27-3.13.81c-.56.41-.84.87-.84,1.37,0,.57.33,1.05,1,1.43.46.27,1.32.47,2.6.61,1.67.18,2.82.39,3.47.61.92.33,1.61.79,2.06,1.39.45.59.68,1.23.68,1.91,0,1.02-.49,1.93-1.47,2.72-.98.79-2.42,1.19-4.31,1.19s-3.45-.48-4.66-1.44c0,.32-.02.53-.06.63s-.11.18-.21.24c-.1.07-.21.1-.34.1-.17,0-.31-.06-.43-.19s-.17-.33-.17-.61v-2.47c0-.29.05-.49.16-.61.11-.12.26-.19.44-.19s.32.06.44.18.18.28.18.48c0,.44.11.8.33,1.1.33.46.86.84,1.59,1.14.73.3,1.62.45,2.68.45,1.56,0,2.72-.29,3.49-.87s1.14-1.19,1.14-1.84c0-.74-.39-1.34-1.16-1.79-.78-.45-1.92-.75-3.41-.9-1.49-.15-2.56-.35-3.21-.6s-1.15-.62-1.51-1.11-.54-1.03-.54-1.6c0-1.03.5-1.85,1.51-2.45,1.01-.6,2.21-.91,3.61-.91,1.66,0,3,.4,4.04,1.21Z" fill="#f2ece6" stroke="#f2ece6" stroke-miterlimit="10"/><path d="m77.15,250.31v-.4c0-.29.06-.5.17-.63s.26-.19.43-.19c.18,0,.33.06.44.19s.17.33.17.63v2.71c0,.29-.07.5-.18.63-.11.12-.26.19-.44.19-.16,0-.3-.05-.41-.16s-.17-.29-.19-.55c-.06-.68-.5-1.32-1.34-1.93-.83-.61-1.96-.91-3.36-.91-1.78,0-3.13.56-4.06,1.67s-1.39,2.39-1.39,3.83c0,1.55.51,2.83,1.53,3.84s2.34,1.51,3.96,1.51c.93,0,1.88-.17,2.85-.51.97-.34,1.84-.89,2.62-1.66.2-.19.38-.29.53-.29.16,0,.3.05.41.16.11.11.16.25.16.41,0,.41-.48.93-1.44,1.56-1.55,1.02-3.28,1.53-5.18,1.53s-3.52-.62-4.76-1.85c-1.24-1.23-1.86-2.8-1.86-4.69s.64-3.54,1.91-4.81c1.27-1.28,2.87-1.91,4.81-1.91s3.38.55,4.63,1.64Z" fill="#f2ece6" stroke="#f2ece6" stroke-miterlimit="10"/><path d="m107.66,261.46v-1.73c-1.74,1.47-3.6,2.2-5.59,2.2-1.44,0-2.56-.36-3.37-1.09-.81-.73-1.21-1.62-1.21-2.68,0-1.16.53-2.18,1.6-3.04s2.62-1.3,4.67-1.3c.55,0,1.15.04,1.8.11.65.07,1.35.18,2.1.34v-1.94c0-.66-.3-1.23-.91-1.71s-1.52-.73-2.74-.73c-.93,0-2.24.27-3.93.81-.3.09-.5.14-.59.14-.15,0-.28-.06-.39-.17-.11-.11-.16-.26-.16-.43,0-.16.05-.29.14-.39.13-.14.67-.34,1.61-.59,1.49-.4,2.61-.6,3.37-.6,1.51,0,2.69.37,3.54,1.12.85.75,1.27,1.59,1.27,2.54v7.94h1.6c.29,0,.5.05.63.16.12.11.19.25.19.44s-.06.31-.19.43-.33.17-.63.17h-2.81Zm0-5.97c-.56-.16-1.16-.28-1.79-.36s-1.29-.11-1.99-.11c-1.74,0-3.1.38-4.09,1.13-.74.56-1.11,1.23-1.11,2.01,0,.72.28,1.33.85,1.83.57.49,1.39.74,2.48.74s2-.21,2.89-.62c.89-.42,1.81-1.07,2.75-1.98v-2.64Z" fill="#f2ece6" stroke="#f2ece6" stroke-miterlimit="10"/><path d="m131.75,249.1v2.19c.71-.87,1.48-1.52,2.3-1.96s1.79-.66,2.9-.66c1.18,0,2.27.28,3.27.83s1.77,1.32,2.32,2.31c.55.98.82,2.02.82,3.11,0,1.72-.62,3.2-1.85,4.42-1.23,1.22-2.75,1.84-4.55,1.84-2.14,0-3.88-.87-5.21-2.61v7.23h2.91c.29,0,.49.05.61.16.12.11.19.25.19.44s-.06.31-.19.43-.33.17-.61.17h-5.73c-.29,0-.49-.05-.61-.16-.12-.11-.19-.25-.19-.44s.06-.33.19-.44c.12-.11.33-.16.61-.16h1.61v-15.47h-1.61c-.29,0-.49-.06-.61-.17s-.19-.26-.19-.44.06-.31.19-.43.33-.17.61-.17h2.81Zm10.4,5.81c0-1.38-.5-2.56-1.51-3.55-1-.98-2.23-1.48-3.68-1.48s-2.69.49-3.7,1.49-1.51,2.17-1.51,3.54.5,2.57,1.51,3.56,2.24,1.49,3.7,1.49,2.66-.49,3.67-1.48c1.01-.98,1.51-2.17,1.51-3.56Z" fill="#f2ece6" stroke="#f2ece6" stroke-miterlimit="10"/><path d="m174.82,255.57h-12.23c.21,1.55.86,2.8,1.95,3.75,1.09.95,2.44,1.42,4.05,1.42.89,0,1.83-.15,2.81-.44s1.78-.69,2.4-1.17c.18-.14.34-.21.47-.21.15,0,.29.06.4.18.11.12.17.26.17.42s-.08.32-.23.47c-.46.48-1.27.92-2.44,1.34-1.17.41-2.36.62-3.59.62-2.06,0-3.77-.67-5.15-2.02-1.38-1.35-2.06-2.98-2.06-4.89,0-1.74.65-3.24,1.94-4.48,1.29-1.25,2.89-1.87,4.79-1.87s3.58.64,4.84,1.92c1.27,1.28,1.89,2.94,1.87,4.98Zm-1.21-1.21c-.24-1.32-.86-2.4-1.88-3.23-1.01-.83-2.22-1.24-3.62-1.24s-2.6.41-3.61,1.23-1.64,1.9-1.89,3.24h11Z" fill="#f2ece6" stroke="#f2ece6" stroke-miterlimit="10"/><path d="m227.48,255.27v5.14c-.91.5-1.83.89-2.73,1.14-.91.26-1.82.39-2.72.39-1.29,0-2.42-.19-3.39-.57-.98-.38-1.8-.91-2.48-1.6s-1.2-1.45-1.58-2.3c-.38-.85-.56-1.92-.56-3.23v-2.2c0-1.31.33-2.59.98-3.83.65-1.24,1.55-2.19,2.68-2.85s2.37-.99,3.7-.99c1.93,0,3.57.53,4.9,1.59,0-.47.02-.75.05-.84.03-.09.1-.18.21-.25.11-.07.22-.11.36-.11.17,0,.31.06.43.19s.17.33.17.61v2.71c0,.29-.06.5-.17.62-.11.12-.26.18-.43.18-.16,0-.3-.05-.41-.16s-.17-.3-.18-.58c-.06-.81-.58-1.47-1.58-1.99-1-.51-2.08-.77-3.25-.77-1.1,0-2.1.24-2.99.72-.89.48-1.72,1.4-2.49,2.75-.51.89-.77,1.89-.77,3.01v2.19c0,1.99.61,3.57,1.83,4.74s2.9,1.76,5.04,1.76c.72,0,1.39-.08,2.01-.23s1.34-.42,2.17-.8v-4.44h-4.13c-.29,0-.49-.05-.61-.16-.12-.11-.19-.25-.19-.44s.06-.33.19-.44.33-.17.61-.17h5.77c.29.01.49.07.61.18.12.11.19.25.19.44,0,.12-.04.24-.11.34s-.16.17-.26.21c-.09.03-.38.05-.86.05Z" fill="#f2ece6" stroke="#f2ece6" stroke-miterlimit="10"/><path d="m256.47,261.46v-1.73c-1.74,1.47-3.6,2.2-5.58,2.2-1.44,0-2.56-.36-3.37-1.09-.81-.73-1.21-1.62-1.21-2.68,0-1.16.53-2.18,1.6-3.04s2.62-1.3,4.67-1.3c.55,0,1.15.04,1.8.11.65.07,1.35.18,2.1.34v-1.94c0-.66-.3-1.23-.91-1.71s-1.52-.73-2.74-.73c-.93,0-2.24.27-3.93.81-.3.09-.5.14-.59.14-.15,0-.28-.06-.39-.17-.11-.11-.16-.26-.16-.43,0-.16.05-.29.14-.39.13-.14.67-.34,1.61-.59,1.49-.4,2.61-.6,3.37-.6,1.51,0,2.69.37,3.54,1.12.85.75,1.27,1.59,1.27,2.54v7.94h1.6c.29,0,.5.05.63.16.12.11.19.25.19.44s-.06.31-.19.43-.33.17-.63.17h-2.81Zm0-5.97c-.56-.16-1.16-.28-1.79-.36s-1.29-.11-1.99-.11c-1.74,0-3.1.38-4.08,1.13-.74.56-1.11,1.23-1.11,2.01,0,.72.28,1.33.85,1.83.57.49,1.39.74,2.48.74s2-.21,2.89-.62c.89-.42,1.81-1.07,2.75-1.98v-2.64Z" fill="#f2ece6" stroke="#f2ece6" stroke-miterlimit="10"/><path d="m279.62,249.1v1.21c1.02-1.09,2.04-1.64,3.07-1.64.62,0,1.16.16,1.63.49.47.33.86.83,1.17,1.49.53-.67,1.07-1.16,1.62-1.49.55-.33,1.1-.49,1.65-.49.87,0,1.56.28,2.07.84.68.72,1.01,1.51,1.01,2.37v8.38h1.01c.29,0,.49.05.61.16.12.11.19.25.19.44s-.06.31-.19.43-.33.17-.61.17h-2.21v-9.47c0-.61-.19-1.11-.56-1.51s-.8-.6-1.29-.6c-.44,0-.9.16-1.39.49-.49.33-1.04.97-1.66,1.93v7.96h1c.29,0,.49.05.61.16.12.11.19.25.19.44s-.06.31-.19.43-.33.17-.61.17h-2.21v-9.38c0-.64-.19-1.16-.56-1.58-.38-.41-.8-.62-1.26-.62-.43,0-.85.14-1.27.41-.58.39-1.19,1.06-1.83,2.01v7.96h1.01c.29,0,.49.05.61.16.12.11.19.25.19.44s-.06.31-.19.43-.33.17-.61.17h-3.23c-.29,0-.49-.06-.61-.17s-.19-.26-.19-.43c0-.18.06-.33.19-.44.12-.11.33-.16.61-.16h1.01v-9.96h-1.01c-.29,0-.49-.06-.61-.17s-.19-.26-.19-.44.06-.31.19-.43.33-.17.61-.17h2.21Z" fill="#f2ece6" stroke="#f2ece6" stroke-miterlimit="10"/><path d="m323.64,255.57h-12.23c.21,1.55.86,2.8,1.95,3.75,1.09.95,2.44,1.42,4.05,1.42.89,0,1.83-.15,2.81-.44s1.78-.69,2.4-1.17c.18-.14.34-.21.47-.21.15,0,.29.06.4.18.11.12.17.26.17.42s-.08.32-.23.47c-.46.48-1.27.92-2.44,1.34-1.17.41-2.36.62-3.59.62-2.06,0-3.77-.67-5.15-2.02-1.38-1.35-2.06-2.98-2.06-4.89,0-1.74.65-3.24,1.94-4.48,1.29-1.25,2.89-1.87,4.79-1.87s3.58.64,4.84,1.92c1.27,1.28,1.89,2.94,1.87,4.98Zm-1.21-1.21c-.24-1.32-.86-2.4-1.88-3.23-1.01-.83-2.22-1.24-3.62-1.24s-2.6.41-3.61,1.23-1.64,1.9-1.89,3.24h11Z" fill="#f2ece6" stroke="#f2ece6" stroke-miterlimit="10"/><path d="m353.17,249.88c0-.28.06-.48.17-.6s.26-.19.43-.19c.18,0,.33.06.44.19s.17.33.17.63v2.06c0,.29-.06.49-.17.61s-.26.19-.44.19c-.16,0-.3-.05-.41-.16-.11-.11-.17-.28-.19-.51-.06-.57-.35-1.04-.89-1.41-.78-.53-1.81-.8-3.1-.8s-2.39.27-3.13.81c-.56.41-.84.87-.84,1.37,0,.57.33,1.05,1,1.43.46.27,1.32.47,2.6.61,1.67.18,2.82.39,3.47.61.92.33,1.61.79,2.06,1.39.45.59.68,1.23.68,1.91,0,1.02-.49,1.93-1.47,2.72-.98.79-2.42,1.19-4.31,1.19s-3.45-.48-4.66-1.44c0,.32-.02.53-.06.63s-.11.18-.21.24c-.1.07-.21.1-.34.1-.17,0-.31-.06-.43-.19s-.17-.33-.17-.61v-2.47c0-.29.05-.49.16-.61.11-.12.26-.19.44-.19s.32.06.44.18.18.28.18.48c0,.44.11.8.33,1.1.33.46.86.84,1.59,1.14.73.3,1.62.45,2.68.45,1.56,0,2.72-.29,3.49-.87s1.14-1.19,1.14-1.84c0-.74-.39-1.34-1.16-1.79-.78-.45-1.92-.75-3.41-.9-1.49-.15-2.56-.35-3.21-.6s-1.15-.62-1.51-1.11-.54-1.03-.54-1.6c0-1.03.5-1.85,1.51-2.45,1.01-.6,2.21-.91,3.61-.91,1.66,0,3,.4,4.04,1.21Z" fill="#f2ece6" stroke="#f2ece6" stroke-miterlimit="10"/></g><g id="e"><path d="m172.52,138.56c-4.8-.56-11.02-1.97-17.4-5.52-19.81-11.02-24.41-33.23-25.2-37.37-1.57-.39-3.46-.81-5.76-2.04-2.7-1.45-4.94-4.2-4.99-4.23l5.76-.64s-4.68-1.47-6.64-3c-1.77-1.38-2.76-2.89-3.24-3.75-.72-1.3-1.24-2.2-1.62-3.64l-3.77.66c-.65,3.56-1.02,7.21-1.1,10.94l13.31,4.85c.21,2.98.65,5.89,1.31,8.71l-11.66,7.82c1.11,3.63,2.54,7.13,4.21,10.47l14.24-1.92c1.43,2.29,3.02,4.47,4.75,6.52l-6.78,12.52c2.69,2.75,5.61,5.27,8.74,7.54l11.8-8.38c2.15,1.29,4.4,2.44,6.73,3.43l-.19,14.39c3.65,1.22,7.44,2.16,11.34,2.75,2.14-4,4.27-8.01,6.41-12.01.47.01.94.03,1.41.04.33.01.66.02.99.03-.69-.94-1.63-2.46-2.19-4.51-.39-1.43-.49-2.69-.48-3.65Z" fill="#f2ece6" stroke-width="0"/><path d="m231.27,48.12l-12.68,5c-2.29-2.55-4.83-4.88-7.56-6.96l3.46-13.28c-2.94-1.89-6.03-3.55-9.25-4.98l-8.85,10.26c-3.31-1.19-6.77-2.08-10.34-2.62l-3.07-13.21c-1.72-.13-3.46-.22-5.22-.22s-3.49.09-5.22.22l-3.07,13.21c-3.57.54-7.03,1.43-10.34,2.62l-8.85-10.26c-3.22,1.42-6.31,3.09-9.25,4.98l3.46,13.28c-2.73,2.08-5.26,4.41-7.56,6.96l-12.68-5c-.17.22-.64.78-.8,1,1.93,2.5,4.36,5.29,7.37,8.13,2.83,2.67,5.59,4.82,8.07,6.54,2.5-3.76,8.92-12.39,20.71-17.33,5.57-2.33,11.7-3.62,18.16-3.62,15.71,0,29.86,8.12,38.39,19.97,2.62-1.72,5.54-3.86,8.55-6.52,2.87-2.54,5.37-4.92,7.34-7.21-.09-.1-.27-.33-.77-.96Z" fill="#f2ece6" stroke-width="0"/><path d="m233.64,94.81l13.31-4.85c-.07-3.73-.45-7.38-1.1-10.94l-4.24-.53s-.76,3.21-3.29,5.85c-2.2,2.3-7.16,3.84-7.16,3.84l4.82.44c-.73,1.1-1.98,2.69-3.95,4.12-2.52,1.82-5,2.48-6.42,2.75-.47,4.34-2.14,14.43-9.71,24.35-7.74,10.14-17.31,14.4-21.38,15.95.56,1.15,1.12,2.4,1.67,3.73.52,1.28.97,2.51,1.36,3.68.98-.36,1.99-.76,3.03-1.23,2.57-1.15,4.79-2.44,6.67-3.7,3.86,2.74,7.71,5.47,11.57,8.21,3.12-2.27,6.04-4.79,8.74-7.54l-6.78-12.52c1.74-2.05,3.33-4.23,4.75-6.52l14.24,1.92c1.68-3.34,3.1-6.84,4.21-10.47l-11.66-7.82c.66-2.83,1.11-5.74,1.31-8.71Z" fill="#f2ece6" stroke-width="0"/><path d="m184.08,127.26c1.44.84,2.77.94,3.07.98.76.09,1.51-.04,2.26-.23,1.02-.33,1.68-.76,1.68-.76-.53.1-1.31.18-2.22.08-1.17-.13-2.08-.52-3.67-1.38-1.19-.65-2.68-1.52-4.37-2.67.16.45.42,1.09.89,1.76.85,1.24,1.87,1.92,2.37,2.21Z" fill="#eb7c28" stroke-width="0"/><path d="m193.95,144.28c-1.43-2.49-3.13-4.27-4.52-5.48.88.31,1.98.8,3.15,1.58,1.4.93,2.4,1.95,3.06,2.74-.55-2.18-1.84-5.95-4.99-9.53-2.63-2.98-6.32-5.33-8.43-5.89-1.4-.38-2.52-.42-4.79-1.23-1.87-.66-3.32-1.42-4.26-1.96,0,2.59.35,6.57,2.18,10.99.5,1.2.86,2.09,1.58,3.22,3.15,4.97,7.6,6.08,9.63,9.75.97,1.75,1.45,3.64,1.45,3.64.12.47.26,1.03.34,1.8.15,1.5-.12,2.35.37,4.56.28,1.25.89,4.07,2.99,6.59,0,0,.18.21,3.04,3.14-.68-1.33-1.47-3.37-1.49-5.87-.01-1.61.26-2.54.47-3.99.26-1.88.37-4.59-.41-8.06.55.48,1.19,1.11,1.83,1.94.66.87,1.12,1.69,1.44,2.37.05-1.1.03-2.71-.37-4.58-.1-.5-.63-2.92-2.25-5.73Z" fill="#eb7c28" stroke-width="0"/><path d="m243.89,65.76s-.04-.01-.08-.02c-2.07,2.75-9.56,4.65-9.56,4.65,12.29-8.3,11.32-20.65,11.32-20.65-10.18,13.65-19.05,12.42-19.05,12.42,23.2-9.33,16.46-30.93,16.46-30.94,0,0,0,0,0,0-4.85,22.29-33.15,37.84-33.15,37.84-2.28,11.45-16.75,11.83-16.75,11.83-15.55-1.37-13.39-11.4-13.39-11.4,3.37,3.88,6.99,1.66,6.99,1.66-5.59-1.6-5.41-3.13-5.31-3.33,4.35,2.22,7.39-.85,7.39-.85-6.5.08-6.91-3.73-6.94-4.22,0-.03.02-.04.05-.04,2.25.53,4.24-2.46,4.24-2.46-4.8,1.72-10.08-2.97-10.56-3.35.28,3.24-.09,3.18-.09,3.18-2.56-9.67-11.19-6.33-11.44-6.3,4.09,3.78,5.4,7.11,5.41,7.11,0,.01,4.01,18.51-8.49,18.76-12.07.24-16.51-9.97-16.69-10.41-.18-.44-.98-1.11-.98-1.11-1.51-.78-2.97-1.62-4.36-2.51-17.94-11.49-25.91-31.57-26.67-33.58-.02-.05-.09-.03-.1.02-4.26,21.8,14.26,29.52,16.66,30.42.05.02.03.1-.03.1-9.91.21-17.95-10.99-18.91-12.38-.03-.04-.09-.01-.09.04.4,13.03,9.88,19.66,11.3,20.58.04.03.02.1-.03.09-3.2-.36-8.67-4.12-9.47-4.69-.04-.03-.08.01-.08.06,1.25,6.37,8.08,12.15,8.79,12.74.03.02.02.07-.02.08-.7.19-4.66-.86-5.3-1.03-.04-.01-.07.03-.05.07,3.57,9.92,13.84,10.05,15.04,10.03.04,0,.06.06.03.09-1.66,1.78-7.07,1.94-8.02,1.96-.05,0-.06.06-.03.09,3.03,2.38,6.2,3.72,9.19,4.43,5.46,1.35,10.13,1.01,14.18-.54,0,0,0,0,0,0-1.31,3.58-9.73,5.4-9.73,5.4,6.65,3.01,13.76-1.59,13.76-1.59-1.25,7.34-9.84,10.07-9.84,10.07,10.46,1.54,15.41-7.96,15.41-7.96,0,0,0,0,0,0,.28,9.73-4.09,12.91-4.09,12.91,9.54-1.65,10.76-11.86,10.76-11.89,0,0,0,0,0,0-3.51-18.08,1.64-20.3,1.64-20.3-2.61,4.88-1.31,15.33-1.31,15.36,0,0,0,0,0,0,.49,3.41,2.1,12.93,7.11,20.69,3.66,5.66,7.19,7.4,8.26,7.88,1.4.63,2.65.95,3.53,1.12-.85-1.57-1.98-4.08-2.49-7.34-.37-2.38-.7-4.49.04-7.01.72-2.46,2.47-5.32,3.8-7.49h0c3.3,7.05,5.18,5.91,5.18,5.91-2.28-7.11,1.08-8.93,1.08-8.93,1.59,5.97,5.12,6.71,5.12,6.71-.91-3.75.51-6.6.51-6.6h0c2.45,10.24,10.86,11.55,10.86,11.55-5.8-5.97-4.15-13.08-4.15-13.08,6.59,10.62,15.11,7.97,15.13,7.96,0,0,0,0,0,0-9.04-3.3-9.78-10.35-9.78-10.35,8.06,5.22,13.91,1.89,13.93,1.88,0,0,0,0,0,0-8.36-1.54-9.67-5.69-9.67-5.69,13.48,4.89,23.21-3.64,23.21-3.64-4.95-.11-8.02-2.22-8.02-2.22,12.97-.4,14.9-10.01,14.9-10.01-1.96.8-4.58.99-5.17,1.02-.04,0-.06-.05-.03-.08,8.79-8.97,8.74-12.16,8.64-12.73Z" fill="#eb7c28" stroke-width="0"/><path d="m196.4,145.46c.58.38,1.38.97,2.19,1.85.35.39,1.54,1.7,2.39,3.99.99,2.69.4,3.42,1.26,5.39.46,1.06,1.29,2.38,2.9,3.66-2.56-.58-3.84-1.91-4.33-2.49-.95-1.14-1.31-2.35-1.82-4.05-.54-1.83-.41-2.33-.87-4.07-.29-1.07-.78-2.57-1.72-4.3Z" fill="#eb7c28" stroke-width="0"/><path d="m174.3,137.53c-.06.72-.09,1.81.12,3.08.12.73.65,3.57,4.03,7.82,3,3.77,4.8,4.32,5.31,6.98.28,1.44.03,2.72-.24,3.6.53-.5,2.99-2.93,2.68-6.1-.21-2.07-1.51-3.51-2.76-4.9-1.84-2.03-3.03-2.27-4.76-3.76-1.38-1.19-3.14-3.2-4.39-6.73Z" fill="#eb7c28" stroke-width="0"/><path d="m195.73,157c.29.61.78,1.56,1.53,2.62.71,1,1.02,1.21,1.57,2.08.39.62,1.03,1.64,1.33,3.04.15.74.5,2.41-.34,4.18-.69,1.45-1.84,2.23-2.41,2.56,1.31-3.95.75-6.16-.02-7.46-.7-1.19-1.81-2.01-2.11-3.77-.23-1.33.14-2.51.45-3.26Z" fill="#eb7c28" stroke-width="0"/></g></svg>