<?xml version="1.0" encoding="UTF-8"?><svg id="a" xmlns="http://www.w3.org/2000/svg" width="26.63in" height="26.63in" viewBox="0 0 1917.28 1917.28"><circle cx="1311.16" cy="874.93" r=".15" fill="none" stroke="#eb7c28" stroke-linecap="round" stroke-miterlimit="10" stroke-width="52.5"/><path d="m1586.26,1358.91v-208.88c0-151.93-123.16-275.1-275.1-275.1,92.56,0,167.59-75.03,167.59-167.59s-75.03-167.59-167.59-167.59" fill="none" stroke="#eb7c28" stroke-linecap="round" stroke-miterlimit="10" stroke-width="52.5"/><path d="m331.02,1358.91v-208.88c0-151.93,123.16-275.1,275.1-275.1h-4.67c-92.56,0-167.59-75.03-167.59-167.59s75.03-167.59,167.59-167.59" fill="none" stroke="#eb7c28" stroke-linecap="round" stroke-miterlimit="10" stroke-width="52.5"/><circle cx="606.11" cy="874.93" r=".31" fill="none" stroke="#eb7c28" stroke-linecap="round" stroke-miterlimit="10" stroke-width="52.5"/><path d="m576.92,1436.46v-168.34c0-210.82,170.91-381.73,381.73-381.73h-5.98c-126.11,0-228.34-102.23-228.34-228.34s102.23-228.34,228.34-228.34,228.34,102.23,228.34,228.34-102.23,228.34-228.34,228.34h5.98c210.82,0,381.73,170.91,381.73,381.73v168.34" fill="none" stroke="#f2f2f2" stroke-linecap="round" stroke-miterlimit="10" stroke-width="82.5"/></svg>