<?xml version="1.0" encoding="UTF-8"?><svg id="a" xmlns="http://www.w3.org/2000/svg" width="26.63in" height="26.63in" viewBox="0 0 1917.28 1917.28"><circle cx="958.64" cy="958.64" r="840.17" fill="#f2f2f2" opacity=".1" stroke-width="0"/><path d="m958.64,1828.81c-117.46,0-231.42-23.01-338.72-68.39-103.62-43.83-196.68-106.57-276.58-186.47-79.91-79.91-142.64-172.96-186.47-276.58-45.38-107.3-68.39-221.26-68.39-338.72s23.01-231.42,68.39-338.72c43.83-103.62,106.57-196.68,186.47-276.58s172.96-142.64,276.58-186.47c107.3-45.38,221.26-68.39,338.72-68.39s231.42,23.01,338.72,68.39c103.62,43.83,196.68,106.57,276.58,186.47,79.9,79.91,142.64,172.96,186.47,276.58,45.38,107.3,68.39,221.26,68.39,338.72s-23.01,231.42-68.39,338.72c-43.83,103.62-106.57,196.68-186.47,276.58-79.91,79.9-172.96,142.64-276.58,186.47-107.3,45.38-221.26,68.39-338.72,68.39Zm0-1680.34c-446.73,0-810.17,363.44-810.17,810.17s363.44,810.17,810.17,810.17,810.17-363.44,810.17-810.17S1405.37,148.47,958.64,148.47Z" fill="#eb7c28" stroke-width="0"/><circle cx="1193.66" cy="894.32" r=".1" fill="none" stroke="#eb7c28" stroke-linecap="round" stroke-miterlimit="10" stroke-width="35"/><path d="m1377.05,1216.97v-139.26c0-101.29-82.11-183.4-183.4-183.4,61.7,0,111.72-50.02,111.72-111.72s-50.02-111.72-111.72-111.72" fill="none" stroke="#eb7c28" stroke-linecap="round" stroke-miterlimit="10" stroke-width="35"/><path d="m540.22,1216.97v-139.26c0-101.29,82.11-183.4,183.4-183.4h-3.11c-61.7,0-111.72-50.02-111.72-111.72s50.02-111.72,111.72-111.72" fill="none" stroke="#eb7c28" stroke-linecap="round" stroke-miterlimit="10" stroke-width="35"/><circle cx="723.62" cy="894.32" r=".21" fill="none" stroke="#eb7c28" stroke-linecap="round" stroke-miterlimit="10" stroke-width="35"/><path d="m704.16,1268.67v-112.23c0-140.55,113.94-254.49,254.49-254.49h-3.98c-84.07,0-152.23-68.16-152.23-152.23s68.16-152.23,152.23-152.23,152.23,68.16,152.23,152.23-68.16,152.23-152.23,152.23h3.98c140.55,0,254.49,113.94,254.49,254.49v112.23" fill="none" stroke="#f2f2f2" stroke-linecap="round" stroke-miterlimit="10" stroke-width="55"/></svg>