<?xml version="1.0" encoding="UTF-8"?><svg id="a" xmlns="http://www.w3.org/2000/svg" width="26.63in" height="26.63in" viewBox="0 0 1917.28 1917.28"><path d="m429.3,955.69v567.12c196.02-21.24,343.45-75.78,440.61-120.66,201.07-92.89,274.56-184.98,464.15-253.39,163.59-59.03,307.37-62.09,400.25-56.31V489.47c-189.5-4.87-329.61,37.91-420.43,76.07-204.6,85.98-276.5,197.94-487.7,293.61-161.75,73.28-305.3,91.73-396.88,96.53Z" fill="none" stroke="#f2f2f2" stroke-linejoin="round" stroke-width="75"/><path d="m1487.97,399.11v-44.25c-189.5-4.87-329.61,37.91-420.43,76.07-204.6,85.98-276.5,197.94-487.7,293.61-161.76,73.28-305.3,91.73-396.88,96.53v567.12c39.54-5.59,79.07-11.19,118.61-16.78" fill="none" stroke="#f2f2f2" stroke-linecap="round" stroke-linejoin="round" stroke-width="75"/><path d="m1108.54,874.61c-48.29-13.31-106.41,22.13-118.06,78.6-2.57,12.45-2.03,26.84,6.65,36.19,5.59,6.02,13.25,8.85,20.76,10.86,20.46,5.47,41.36,4.31,62.18,3.28,17.46-.86,38.46-6.39,52.07,9.71,14.14,16.73,8.7,43.58,2.02,62.81-8.18,23.54-26.18,41.33-45.88,52.26-27.27,15.13-79.2,20.69-72.36-29.6" fill="none" stroke="#eb7c28" stroke-linecap="round" stroke-linejoin="round" stroke-width="37.5"/><path d="m1083.26,1179.96c-.26-14.53-.97-38.56-3.28-68.16-5.51-70.79-14.83-105.59-24.75-186.78-2.4-19.64-5.78-49.72-8.71-87.07" fill="none" stroke="#eb7c28" stroke-linecap="round" stroke-linejoin="round" stroke-width="37.5"/><path d="m716.13,1078.31c-9.1-6.86-31.66-21.62-60.89-18.03-18.63,2.28-38.79,9.84-51.37,24.24-23.87,27.34-9.79,66.88,17.54,85.86,33.34,23.15,85.33,19.9,109.05,56.45,9.49,14.63,11.52,33.85,5.3,50.14-14.34,37.54-71.64,52.27-105.18,33.18-6.96-3.96-12.03-9.08-15.69-13.79" fill="none" stroke="#eb7c28" stroke-linecap="round" stroke-linejoin="round" stroke-width="37.5"/><path d="m654.79,1017.32c-1.62,24.48-2.87,60.99.2,105.23,2.28,32.9,5.95,55.62,9.17,78.07,5.43,37.83,12.09,92.26,16.66,161.43" fill="none" stroke="#eb7c28" stroke-linecap="round" stroke-linejoin="round" stroke-width="37.5"/><path d="m1406.98,942.48c9.22,6.71,32.02,21.09,61.18,17.03,18.59-2.59,38.63-10.48,50.96-25.08,23.42-27.73,8.69-67.03-18.95-85.56-33.72-22.6-85.65-18.49-109.96-54.65-9.73-14.47-12.08-33.65-6.12-50.05,13.72-37.77,70.77-53.44,104.62-34.91,7.03,3.84,12.18,8.88,15.92,13.53" fill="none" stroke="#eb7c28" stroke-linecap="round" stroke-linejoin="round" stroke-width="37.5"/><path d="m1469.31,1002.45c1.22-24.5,1.86-61.03-1.93-105.21-2.82-32.86-6.86-55.51-10.46-77.91-6.05-37.74-13.61-92.05-19.32-161.13" fill="none" stroke="#eb7c28" stroke-linecap="round" stroke-linejoin="round" stroke-width="37.5"/></svg>