<?xml version="1.0" encoding="UTF-8"?><svg id="a" xmlns="http://www.w3.org/2000/svg" width="26.63in" height="26.63in" viewBox="0 0 1917.28 1917.28"><circle cx="958.64" cy="958.64" r="840.17" fill="#f2f2f2" opacity=".1" stroke-width="0"/><path d="m958.64,1828.81c-117.46,0-231.42-23.01-338.72-68.39-103.62-43.83-196.68-106.57-276.58-186.47-79.91-79.91-142.64-172.96-186.47-276.58-45.38-107.3-68.39-221.26-68.39-338.72s23.01-231.42,68.39-338.72c43.83-103.62,106.57-196.68,186.47-276.58s172.96-142.64,276.58-186.47c107.3-45.38,221.26-68.39,338.72-68.39s231.42,23.01,338.72,68.39c103.62,43.83,196.68,106.57,276.58,186.47,79.9,79.91,142.64,172.96,186.47,276.58,45.38,107.3,68.39,221.26,68.39,338.72s-23.01,231.42-68.39,338.72c-43.83,103.62-106.57,196.68-186.47,276.58-79.91,79.9-172.96,142.64-276.58,186.47-107.3,45.38-221.26,68.39-338.72,68.39Zm0-1680.34c-446.73,0-810.17,363.44-810.17,810.17s363.44,810.17,810.17,810.17,810.17-363.44,810.17-810.17S1405.37,148.47,958.64,148.47Z" fill="#eb7c28" stroke-width="0"/><path d="m605.75,950v378.08c130.68-14.16,228.97-50.52,293.74-80.44,134.05-61.93,183.04-123.32,309.43-168.93,109.06-39.35,204.91-41.39,266.83-37.54v-401.98c-126.33-3.24-219.74,25.27-280.28,50.71-136.4,57.32-184.33,131.96-325.13,195.74-107.84,48.85-203.53,61.15-264.59,64.35Z" fill="none" stroke="#f2f2f2" stroke-linejoin="round" stroke-width="50"/><path d="m1311.53,578.95v-29.5c-126.33-3.24-219.74,25.27-280.29,50.71-136.4,57.32-184.33,131.96-325.13,195.74-107.84,48.85-203.53,61.15-264.59,64.35v378.08c26.36-3.73,52.71-7.46,79.07-11.19" fill="none" stroke="#f2f2f2" stroke-linecap="round" stroke-linejoin="round" stroke-width="50"/><path d="m1058.58,895.95c-32.19-8.87-70.94,14.75-78.71,52.4-1.71,8.3-1.35,17.89,4.43,24.13,3.73,4.01,8.83,5.9,13.84,7.24,13.64,3.65,27.58,2.87,41.45,2.19,11.64-.57,25.64-4.26,34.71,6.47,9.43,11.16,5.8,29.06,1.35,41.87-5.45,15.69-17.45,27.55-30.59,34.84-18.18,10.09-52.8,13.79-48.24-19.73" fill="none" stroke="#eb7c28" stroke-linecap="round" stroke-linejoin="round" stroke-width="25"/><path d="m1041.72,1099.52c-.17-9.69-.65-25.71-2.18-45.44-3.67-47.19-9.89-70.39-16.5-124.52-1.6-13.09-3.85-33.15-5.81-58.05" fill="none" stroke="#eb7c28" stroke-linecap="round" stroke-linejoin="round" stroke-width="25"/><path d="m796.96,1031.75c-6.07-4.57-21.11-14.41-40.59-12.02-12.42,1.52-25.86,6.56-34.24,16.16-15.91,18.22-6.53,44.59,11.69,57.24,22.23,15.43,56.89,13.27,72.7,37.64,6.33,9.75,7.68,22.56,3.53,33.43-9.56,25.02-47.76,34.84-70.12,22.12-4.64-2.64-8.02-6.05-10.46-9.19" fill="none" stroke="#eb7c28" stroke-linecap="round" stroke-linejoin="round" stroke-width="25"/><path d="m756.07,991.09c-1.08,16.32-1.91,40.66.13,70.15,1.52,21.93,3.97,37.08,6.12,52.05,3.62,25.22,8.06,61.51,11.11,107.62" fill="none" stroke="#eb7c28" stroke-linecap="round" stroke-linejoin="round" stroke-width="25"/><path d="m1257.53,941.2c6.14,4.47,21.34,14.06,40.79,11.35,12.39-1.73,25.75-6.99,33.97-16.72,15.61-18.48,5.79-44.69-12.63-57.04-22.48-15.07-57.1-12.33-73.31-36.43-6.49-9.65-8.05-22.43-4.08-33.36,9.15-25.18,47.18-35.62,69.75-23.27,4.68,2.56,8.12,5.92,10.61,9.02" fill="none" stroke="#eb7c28" stroke-linecap="round" stroke-linejoin="round" stroke-width="25"/><path d="m1299.09,981.18c.81-16.33,1.24-40.68-1.29-70.14-1.88-21.91-4.58-37.01-6.97-51.94-4.04-25.16-9.07-61.37-12.88-107.42" fill="none" stroke="#eb7c28" stroke-linecap="round" stroke-linejoin="round" stroke-width="25"/></svg>