<?xml version="1.0" encoding="UTF-8"?><svg id="a" xmlns="http://www.w3.org/2000/svg" width="2.66in" height="2.66in" viewBox="0 0 191.82 191.82"><path d="m66.95,49.63l68.34,90.35c.37.48.02,1.18-.58,1.18h-8.93c-.23,0-.44-.11-.58-.29L56.08,50.52c-.37-.48-.03-1.18.58-1.18h9.7c.23,0,.45.11.58.29Z" fill="#eb7c28" stroke-width="0"/><path d="m168.26.12H23.37C10.44.12-.06,10.62-.06,23.55v144.89c0,12.93,10.5,23.43,23.43,23.43h144.89c12.93,0,23.43-10.5,23.43-23.43V23.55C191.69,10.62,181.19.12,168.26.12Zm-48.47,152.31l-29.68-38.8c-.34-.44-1-.46-1.36-.05l-34.05,38.9c-.17.19-.41.3-.66.3h-17.08c-.76,0-1.16-.89-.66-1.46l43.61-49.85c.28-.32.29-.78.04-1.12l-46.34-60.61c-.44-.58-.03-1.42.7-1.42h37.84c.28,0,.54.13.7.35l26.74,35.36c.34.45,1,.47,1.37.05l31.02-35.46c.17-.19.41-.3.66-.3h17.07c.76,0,1.16.89.66,1.46l-40.66,46.48c-.28.31-.29.78-.04,1.11l48.39,63.98c.44.58.03,1.41-.7,1.41h-36.86c-.27,0-.53-.13-.7-.35Z" fill="#eb7c28" stroke-width="0"/></svg>