<?xml version="1.0" encoding="UTF-8"?><svg id="a" xmlns="http://www.w3.org/2000/svg" width="2.66in" height="2.66in" viewBox="0 0 191.82 191.82"><path d="m168.35.05c12.93,0,23.42,10.5,23.42,23.42v144.88c0,12.93-10.5,23.42-23.42,23.42H23.47C10.54,191.77.04,181.28.04,168.35V23.47C.04,10.54,10.54.05,23.47.05c0,0,144.88,0,144.88,0Zm-7.85,65.77c-1.55-5.8-6.12-10.37-11.92-11.92-10.51-2.82-52.67-2.82-52.67-2.82,0,0-42.16,0-52.67,2.82-5.8,1.55-10.37,6.12-11.92,11.92-2.82,10.51-2.82,32.45-2.82,32.45,0,0,0,21.93,2.82,32.45,1.55,5.8,6.12,10.37,11.92,11.92,10.51,2.82,52.67,2.82,52.67,2.82,0,0,42.16,0,52.67-2.82,5.8-1.55,10.37-6.12,11.92-11.92,2.82-10.51,2.82-32.45,2.82-32.45,0,0,0-21.94-2.82-32.45Zm-78.07,49.41v-33.92c0-1.45,1.57-2.36,2.82-1.63l29.37,16.96c1.26.72,1.26,2.54,0,3.26l-29.37,16.96c-1.26.72-2.82-.18-2.82-1.63Z" fill="#eb7c28" fill-rule="evenodd" stroke-width="0"/></svg>